<?xml version="1.0" encoding="utf-8"?>
<!-- Generator: Adobe Illustrator 24.0.1, SVG Export Plug-In . SVG Version: 6.00 Build 0)  -->
<svg version="1.1" id="Layer_1" xmlns="http://www.w3.org/2000/svg" xmlns:xlink="http://www.w3.org/1999/xlink" x="0px" y="0px"
	 viewBox="0 0 190 60" style="enable-background:new 0 0 190 60;" xml:space="preserve">
<style type="text/css">
	.st0{fill:#9319B0;}
	.st1{fill:#29ABE2;}
	.st2{fill-rule:evenodd;clip-rule:evenodd;fill:url(#SVGID_1_);}
	.st3{fill-rule:evenodd;clip-rule:evenodd;fill:url(#SVGID_2_);}
	.st4{fill-rule:evenodd;clip-rule:evenodd;fill:url(#SVGID_3_);}
	.st5{fill-rule:evenodd;clip-rule:evenodd;fill:url(#SVGID_4_);}
	.st6{fill-rule:evenodd;clip-rule:evenodd;fill:url(#SVGID_5_);}
	.st7{fill-rule:evenodd;clip-rule:evenodd;fill:url(#SVGID_6_);}
	.st8{fill-rule:evenodd;clip-rule:evenodd;fill:url(#SVGID_7_);}
	.st9{fill-rule:evenodd;clip-rule:evenodd;fill:url(#SVGID_8_);}
	.st10{fill-rule:evenodd;clip-rule:evenodd;fill:url(#SVGID_9_);}
</style>
<g>
	<path class="st0" d="M95.7,25.8c-0.6,1.3-1.2,2.5-2.1,3.5c-0.8,1-1.7,1.8-2.7,2.5c-2,1.4-4.2,2.1-6.6,2.1c-1.7,0-3.3-0.3-4.7-0.9
		c-1.5-0.6-2.8-1.5-3.9-2.6c-1.1-1.1-2-2.4-2.7-3.9c-0.7-1.5-1-3.1-1-4.8c0-1.6,0.3-3.2,0.9-4.7c0.6-1.5,1.4-2.8,2.5-4
		c1.1-1.1,2.4-2.1,3.9-2.8c1.5-0.7,3.1-1,4.9-1c1.8,0,3.4,0.3,4.9,1c1.5,0.7,2.8,1.6,3.9,2.7c1.1,1.1,1.9,2.5,2.6,4
		c0.6,1.5,0.9,3.2,0.9,5c0,0.5,0,0.8,0,1.1c0,0,0,0,0,0c-0.1,0.4-0.4,0.7-0.8,0.7l-15.6,0c-0.6,0-1,0.6-0.8,1.1
		c0.3,0.9,0.8,1.6,1.6,2.1c1,0.8,2.2,1.2,3.6,1.2c1.1,0,1.9-0.2,2.6-0.6c0.5-0.3,1-0.8,1.4-1.3c0.2-0.2,0.4-0.3,0.6-0.3H95.7z
		 M88.4,18.9c0.6,0,1-0.6,0.8-1.2l0,0c-0.2-0.5-0.5-0.9-0.9-1.3c-0.4-0.4-0.9-0.8-1.6-1c-0.6-0.3-1.4-0.4-2.3-0.4
		c-0.9,0-1.7,0.1-2.3,0.4c-0.6,0.3-1.2,0.6-1.6,1c-0.4,0.4-0.7,0.9-0.9,1.3l0,0c-0.3,0.6,0.2,1.2,0.8,1.2H88.4z"/>
	<path class="st0" d="M100.4,9.9h4c1.4,0,2.5,1.1,2.5,2.5v0h0.1c0.1-0.3,0.3-0.6,0.6-0.9c0.3-0.4,0.7-0.7,1.2-1.1
		c0.5-0.3,1.1-0.6,1.9-0.9c0.8-0.3,1.7-0.4,2.8-0.4c0.5,0,1.1,0.1,1.7,0.2c0.6,0.1,1.2,0.3,1.8,0.6c0.6,0.3,1.2,0.7,1.7,1.3
		c0.6,0.5,1.1,1.2,1.5,2.1c0.7-1.1,1.7-2.1,2.9-2.9c1.2-0.8,2.7-1.2,4.5-1.2c0.4,0,0.9,0,1.4,0.1c0.5,0.1,1,0.2,1.6,0.3
		c0.5,0.2,1.1,0.4,1.6,0.7c0.5,0.3,1.1,0.7,1.5,1.2c0.5,0.6,1,1.1,1.3,1.7c0.3,0.5,0.6,1.1,0.8,1.8c0.2,0.7,0.3,1.4,0.4,2.3
		c0.1,0.9,0.1,2,0.1,3.2v12.7l0,0c-3.8,0-7-3.1-7-7v-5.4c0-0.5,0-1-0.1-1.6c0-0.6-0.2-1.2-0.4-1.7c-0.2-0.5-0.6-1-1-1.3
		c-0.5-0.4-1.2-0.5-2.1-0.5c-1,0-1.7,0.2-2.2,0.6c-0.5,0.4-0.9,0.8-1.1,1.4c-0.2,0.5-0.4,1.1-0.4,1.6c0,0.5-0.1,1-0.1,1.3v12.7h0
		c-3.8,0-7-3.1-7-7v-5.7c0-0.3,0-0.7-0.1-1.3c0-0.5-0.2-1.1-0.4-1.6c-0.2-0.5-0.6-1-1-1.4c-0.5-0.4-1.1-0.6-2-0.6
		c-1,0-1.7,0.2-2.3,0.6c-0.5,0.4-0.9,0.9-1.2,1.4c-0.3,0.6-0.4,1.1-0.4,1.7c0,0.6-0.1,1-0.1,1.4v12.4h0c-3.8,0-7-3.1-7-7V9.9z"/>
	<path class="st0" d="M163.4,25.8c-0.6,1.3-1.2,2.5-2.1,3.5c-0.8,1-1.7,1.8-2.7,2.5c-2,1.4-4.2,2.1-6.6,2.1c-1.7,0-3.3-0.3-4.7-0.9
		c-1.5-0.6-2.8-1.5-3.9-2.6c-1.1-1.1-2-2.4-2.7-3.9c-0.7-1.5-1-3.1-1-4.8c0-1.6,0.3-3.2,0.9-4.7c0.6-1.5,1.4-2.8,2.5-4
		c1.1-1.1,2.4-2.1,3.9-2.8c1.5-0.7,3.1-1,4.9-1c1.8,0,3.4,0.3,4.9,1c1.5,0.7,2.8,1.6,3.9,2.7c1.1,1.1,1.9,2.5,2.6,4
		c0.6,1.5,0.9,3.2,0.9,5c0,0.5,0,0.8,0,1.1c0,0,0,0,0,0c-0.1,0.4-0.4,0.7-0.8,0.7h-15.6c-0.6,0-1,0.6-0.8,1.1
		c0.3,0.9,0.8,1.6,1.6,2.1c1,0.8,2.2,1.2,3.6,1.2c1.1,0,1.9-0.2,2.6-0.6c0.5-0.3,1-0.8,1.4-1.3c0.2-0.2,0.4-0.3,0.6-0.3H163.4z
		 M156,18.9c0.6,0,1-0.6,0.8-1.2c0,0,0,0,0,0c-0.2-0.5-0.5-0.9-0.9-1.3c-0.4-0.4-0.9-0.8-1.6-1c-0.6-0.3-1.4-0.4-2.3-0.4
		c-0.9,0-1.7,0.1-2.3,0.4c-0.6,0.3-1.2,0.6-1.6,1c-0.4,0.4-0.7,0.9-0.9,1.3c0,0,0,0,0,0c-0.3,0.6,0.2,1.2,0.8,1.2H156z"/>
	<path class="st0" d="M168.3,2.1h2.9c2.2,0,4,1.8,4,4v12.1h0.1l6.4-8.4h8.3l-8.8,10.2l8.5,13h-7.9l-6.6-11.2h-0.1v7.1
		c0,2.2-1.8,4-4,4h-2.9V2.1z"/>
</g>
<g>
	<path class="st1" d="M71.7,38.1h1.3c1,0,1.8,0.8,1.8,1.8v2.7h0c0.3-0.5,0.6-0.8,1.1-1c0.5-0.2,1-0.3,1.6-0.3c0.3,0,0.5,0,0.8,0.1
		c0.3,0,0.5,0.1,0.8,0.2c0.3,0.1,0.5,0.2,0.7,0.4c0.2,0.1,0.4,0.3,0.6,0.5c0.2,0.3,0.4,0.5,0.5,0.8c0.1,0.3,0.2,0.5,0.3,0.9
		c0.1,0.3,0.1,0.6,0.1,1c0,0.4,0,0.8,0,1.3v6h-1.2c-1.1,0-2-0.9-2-2v-3.9c0-0.1,0-0.3,0-0.6c0-0.3-0.1-0.5-0.2-0.7
		c-0.1-0.2-0.3-0.5-0.5-0.6c-0.2-0.2-0.6-0.3-1-0.3c-0.4,0-0.8,0.1-1,0.3c-0.2,0.2-0.4,0.4-0.5,0.6c-0.1,0.2-0.2,0.5-0.2,0.7
		c0,0.2,0,0.4,0,0.6v6h-1.2c-1.1,0-1.9-0.9-1.9-1.9V38.1z"/>
	<path class="st1" d="M92.8,52.4h-1.4v-1.2h0c-0.1,0.3-0.3,0.5-0.5,0.7c-0.2,0.2-0.5,0.4-0.7,0.5c-0.3,0.1-0.6,0.2-0.9,0.3
		c-0.3,0.1-0.6,0.1-0.9,0.1c-0.8,0-1.6-0.2-2.2-0.5c-0.7-0.3-1.2-0.7-1.6-1.3c-0.4-0.5-0.8-1.1-1-1.8c-0.2-0.7-0.4-1.4-0.4-2.2
		c0-0.9,0.1-1.7,0.4-2.4c0.3-0.7,0.7-1.3,1.1-1.8c0.5-0.5,1-0.9,1.7-1.1c0.6-0.3,1.3-0.4,2-0.4c0.4,0,0.8,0,1.1,0.1s0.6,0.2,0.9,0.4
		c0.3,0.1,0.5,0.3,0.6,0.5c0.2,0.2,0.3,0.3,0.4,0.5h0v-1.1h1.4c0.9,0,1.7,0.8,1.7,1.7v7.4C94.5,51.7,93.7,52.4,92.8,52.4z
		 M86.2,47.1c0,0.3,0,0.5,0.1,0.9c0.1,0.3,0.2,0.6,0.5,0.9c0.2,0.3,0.5,0.5,0.8,0.7c0.3,0.2,0.7,0.3,1.2,0.3c0.5,0,0.9-0.1,1.2-0.3
		c0.3-0.2,0.6-0.4,0.8-0.7c0.2-0.3,0.4-0.6,0.4-0.9c0.1-0.3,0.1-0.6,0.1-0.9c0-0.3-0.1-0.6-0.2-1c-0.1-0.3-0.3-0.6-0.5-0.9
		c-0.2-0.3-0.5-0.5-0.8-0.6c-0.3-0.2-0.7-0.2-1.2-0.2c-0.5,0-0.8,0.1-1.2,0.3c-0.3,0.2-0.6,0.4-0.8,0.7c-0.2,0.3-0.4,0.6-0.5,0.9
		C86.2,46.5,86.2,46.8,86.2,47.1z"/>
	<path class="st1" d="M101.2,44.7c0-0.1,0-0.1,0-0.2c0-0.1-0.1-0.2-0.1-0.3c-0.1-0.1-0.2-0.2-0.3-0.2c-0.1-0.1-0.3-0.1-0.5-0.1
		c-0.3,0-0.6,0.1-0.7,0.3c-0.1,0.2-0.2,0.3-0.2,0.5c0,0.3,0.2,0.5,0.5,0.7c0.3,0.2,0.7,0.3,1.1,0.5c0.4,0.1,0.9,0.3,1.3,0.4
		c0.4,0.1,0.8,0.3,1.2,0.6c0.3,0.2,0.6,0.6,0.8,0.9c0.2,0.4,0.3,0.9,0.3,1.4c0,0.6-0.1,1.1-0.3,1.5c-0.2,0.5-0.5,0.8-0.9,1.2
		c-0.4,0.3-0.8,0.6-1.4,0.7c-0.5,0.2-1.1,0.3-1.6,0.3c-0.4,0-0.8-0.1-1.3-0.2c-0.5-0.1-0.9-0.3-1.3-0.6c-0.4-0.3-0.8-0.6-1.1-1.1
		c-0.3-0.5-0.5-1-0.6-1.8h3.1c0,0.2,0.1,0.4,0.2,0.6c0.1,0.1,0.2,0.2,0.4,0.3c0.1,0.1,0.3,0.1,0.4,0.1c0.1,0,0.2,0,0.2,0
		c0.3,0,0.5-0.1,0.7-0.2c0.2-0.1,0.3-0.4,0.3-0.6c0-0.2-0.1-0.4-0.2-0.5c-0.1-0.1-0.3-0.3-0.5-0.4c-0.2-0.1-0.5-0.2-0.9-0.4
		c-0.4-0.1-0.8-0.3-1.3-0.5c-0.3-0.1-0.7-0.3-1-0.4c-0.3-0.2-0.6-0.4-0.8-0.6c-0.2-0.2-0.4-0.5-0.5-0.8c-0.1-0.3-0.2-0.6-0.2-1
		c0-0.5,0.1-1,0.3-1.5c0.2-0.4,0.5-0.8,0.9-1.1c0.4-0.3,0.8-0.5,1.3-0.7c0.5-0.2,1-0.3,1.5-0.3c0.3,0,0.7,0,1.2,0.1
		c0.4,0.1,0.9,0.3,1.2,0.5c0.4,0.2,0.7,0.6,1,1c0.3,0.4,0.5,1,0.5,1.7H101.2z"/>
	<path class="st1" d="M110.1,41.7h1.5v2.4h-1.5v8.3h-1c-1.2,0-2.1-1-2.1-2.1v-6.2h-1.5v-2.4h1.5v-3.6h1c1.2,0,2.1,1,2.1,2.1V41.7z"
		/>
	<path class="st1" d="M122.2,52.4h-1.4v-1.2h0c-0.1,0.3-0.3,0.5-0.5,0.7c-0.2,0.2-0.5,0.4-0.7,0.5c-0.3,0.1-0.6,0.2-0.9,0.3
		c-0.3,0.1-0.6,0.1-0.9,0.1c-0.8,0-1.6-0.2-2.2-0.5c-0.7-0.3-1.2-0.7-1.6-1.3c-0.4-0.5-0.8-1.1-1-1.8c-0.2-0.7-0.4-1.4-0.4-2.2
		c0-0.9,0.1-1.7,0.4-2.4c0.3-0.7,0.7-1.3,1.1-1.8c0.5-0.5,1-0.9,1.7-1.1c0.6-0.3,1.3-0.4,2-0.4c0.4,0,0.8,0,1.1,0.1s0.6,0.2,0.9,0.4
		c0.3,0.1,0.5,0.3,0.6,0.5c0.2,0.2,0.3,0.3,0.4,0.5h0v-1.1h1.4c0.9,0,1.7,0.8,1.7,1.7v7.4C123.9,51.7,123.1,52.4,122.2,52.4z
		 M115.6,47.1c0,0.3,0,0.5,0.1,0.9c0.1,0.3,0.2,0.6,0.5,0.9c0.2,0.3,0.5,0.5,0.8,0.7c0.3,0.2,0.7,0.3,1.2,0.3c0.5,0,0.9-0.1,1.2-0.3
		c0.3-0.2,0.6-0.4,0.8-0.7c0.2-0.3,0.4-0.6,0.4-0.9c0.1-0.3,0.1-0.6,0.1-0.9c0-0.3-0.1-0.6-0.2-1c-0.1-0.3-0.3-0.6-0.5-0.9
		c-0.2-0.3-0.5-0.5-0.8-0.6c-0.3-0.2-0.7-0.2-1.2-0.2c-0.5,0-0.8,0.1-1.2,0.3c-0.3,0.2-0.6,0.4-0.8,0.7c-0.2,0.3-0.4,0.6-0.5,0.9
		C115.6,46.5,115.6,46.8,115.6,47.1z"/>
	<path class="st1" d="M132,38.1h1.1c1.1,0,2.1,0.9,2.1,2.1v2.4c0.3-0.3,0.6-0.5,0.9-0.7c0.3-0.2,0.6-0.3,0.9-0.4
		c0.3-0.1,0.5-0.1,0.8-0.1c0.2,0,0.4,0,0.5,0c0.5,0,1.1,0.1,1.7,0.3c0.6,0.2,1.2,0.5,1.7,1c0.5,0.5,0.9,1,1.2,1.8
		c0.3,0.7,0.5,1.6,0.5,2.6c0,1-0.2,1.8-0.5,2.5c-0.3,0.7-0.7,1.3-1.2,1.8c-0.5,0.5-1,0.8-1.7,1.1c-0.6,0.2-1.3,0.4-1.9,0.4
		c-0.7,0-1.4-0.2-1.9-0.5c-0.5-0.3-0.9-0.7-1.1-1h0v1.1h-3V38.1z M135,47c0,0.4,0.1,0.7,0.2,1.1c0.1,0.3,0.3,0.6,0.5,0.9
		c0.2,0.3,0.5,0.5,0.8,0.6c0.3,0.1,0.7,0.2,1.1,0.2c0.4,0,0.8-0.1,1.1-0.2c0.3-0.2,0.6-0.4,0.8-0.6s0.4-0.5,0.5-0.9
		c0.1-0.3,0.2-0.7,0.2-1c0-0.3-0.1-0.7-0.2-1c-0.1-0.3-0.3-0.6-0.5-0.9c-0.2-0.3-0.5-0.5-0.8-0.6c-0.3-0.2-0.7-0.2-1.1-0.2
		c-0.4,0-0.8,0.1-1.1,0.2c-0.3,0.2-0.6,0.4-0.8,0.6c-0.2,0.3-0.4,0.5-0.5,0.9C135,46.4,135,46.7,135,47z"/>
	<path class="st1" d="M154.1,52.4h-1.2v-1.2h0c-0.1,0.3-0.3,0.5-0.5,0.7c-0.2,0.2-0.5,0.4-0.7,0.5c-0.3,0.1-0.6,0.2-0.9,0.3
		c-0.3,0.1-0.6,0.1-0.9,0.1c-0.8,0-1.6-0.2-2.2-0.5c-0.7-0.3-1.2-0.7-1.6-1.3c-0.4-0.5-0.8-1.1-1-1.8c-0.2-0.7-0.4-1.4-0.4-2.2
		c0-0.9,0.1-1.7,0.4-2.4c0.3-0.7,0.7-1.3,1.1-1.8c0.5-0.5,1-0.9,1.7-1.1c0.6-0.3,1.3-0.4,2-0.4c0.4,0,0.8,0,1.1,0.1
		c0.3,0.1,0.6,0.2,0.9,0.4c0.3,0.1,0.5,0.3,0.6,0.5c0.2,0.2,0.3,0.3,0.4,0.5h0v-1.1h1.2c1,0,1.9,0.8,1.9,1.9v7
		C155.9,51.6,155.1,52.4,154.1,52.4z M147.6,47.1c0,0.3,0,0.5,0.1,0.9c0.1,0.3,0.2,0.6,0.5,0.9c0.2,0.3,0.5,0.5,0.8,0.7
		c0.3,0.2,0.7,0.3,1.2,0.3c0.5,0,0.9-0.1,1.2-0.3c0.3-0.2,0.6-0.4,0.8-0.7c0.2-0.3,0.4-0.6,0.4-0.9c0.1-0.3,0.1-0.6,0.1-0.9
		c0-0.3-0.1-0.6-0.2-1c-0.1-0.3-0.3-0.6-0.5-0.9c-0.2-0.3-0.5-0.5-0.8-0.6c-0.3-0.2-0.7-0.2-1.2-0.2c-0.5,0-0.8,0.1-1.2,0.3
		c-0.3,0.2-0.6,0.4-0.8,0.7c-0.2,0.3-0.4,0.6-0.5,0.9C147.7,46.5,147.6,46.8,147.6,47.1z"/>
	<path class="st1" d="M158.3,38.1h0.9c1.2,0,2.2,1,2.2,2.2v5.3h0l2.9-3.9h3.7l-3.9,4.7l3.8,6h-3.5l-2.9-5.2h0v3c0,1.2-1,2.2-2.2,2.2
		h-0.9V38.1z"/>
	<path class="st1" d="M172.4,52.4L172.4,52.4c-1.7,0-3.1-1.4-3.1-3.1v-7.6h3.1V52.4z"/>
	<path class="st1" d="M185.2,48.4c-0.1,0.6-0.4,1.2-0.7,1.7c-0.3,0.5-0.7,1-1.2,1.4c-0.5,0.4-1,0.7-1.6,0.9c-0.6,0.2-1.3,0.3-2,0.3
		c-0.8,0-1.5-0.1-2.2-0.4c-0.7-0.3-1.3-0.7-1.8-1.2c-0.5-0.5-0.9-1.1-1.2-1.8c-0.3-0.7-0.4-1.4-0.4-2.2c0-0.8,0.1-1.5,0.4-2.2
		s0.7-1.3,1.2-1.8c0.5-0.5,1.1-0.9,1.7-1.2c0.7-0.3,1.4-0.4,2.2-0.4c0.7,0,1.3,0.1,2,0.3c0.6,0.2,1.2,0.5,1.6,0.9
		c0.5,0.4,0.9,0.9,1.2,1.4c0.3,0.6,0.6,1.2,0.7,1.8H182c-0.1-0.2-0.2-0.4-0.3-0.5c-0.1-0.2-0.3-0.3-0.5-0.5
		c-0.2-0.1-0.4-0.3-0.6-0.3c-0.2-0.1-0.5-0.1-0.9-0.1c-0.4,0-0.7,0-1,0.2c-0.3,0.1-0.6,0.3-0.8,0.6c-0.2,0.2-0.4,0.5-0.5,0.9
		c-0.1,0.3-0.2,0.7-0.2,1.1c0,0.4,0.1,0.7,0.2,1.1c0.1,0.3,0.3,0.6,0.5,0.9c0.2,0.2,0.5,0.4,0.8,0.6c0.3,0.1,0.6,0.2,1,0.2
		c0.3,0,0.6,0,0.9-0.1c0.2-0.1,0.5-0.2,0.6-0.3c0.2-0.1,0.3-0.3,0.5-0.5c0.1-0.2,0.2-0.3,0.3-0.5H185.2z"/>
	<path class="st1" d="M190,52.4L190,52.4c-1.7,0-3.1-1.4-3.1-3.1v-7.6h3.1V52.4z"/>
</g>
<g>
	<linearGradient id="SVGID_1_" gradientUnits="userSpaceOnUse" x1="6.7678" y1="40.7759" x2="59.2365" y2="40.7759">
		<stop  offset="0" style="stop-color:#662D80"/>
		<stop  offset="0.4926" style="stop-color:#C30080"/>
		<stop  offset="1" style="stop-color:#FF5783"/>
	</linearGradient>
	<path class="st2" d="M28.5,60c-12.6-3.3-17.8-14.4-17.7-26.6c-0.3-7.1,4.5-11.8,9.8-11.7C9.8,20.8,5.3,31.1,7.2,40.2
		C8.4,50.8,19.3,59.5,28.5,60L28.5,60z"/>
	<linearGradient id="SVGID_2_" gradientUnits="userSpaceOnUse" x1="-19.2369" y1="27.7395" x2="48.1213" y2="27.7395">
		<stop  offset="0" style="stop-color:#FF87FF"/>
		<stop  offset="0.4926" style="stop-color:#9600B9"/>
		<stop  offset="1" style="stop-color:#5A00A3"/>
	</linearGradient>
	<path class="st3" d="M8.4,46.7c-2.2-6.2-2.7-11.2-1.7-16.2c2.2-10.5,10-17.1,20.9-16.9c2,0.5,5.5,0.5,11.2,2.9
		c4.9-0.2,9.7,3.2,9.4,9.5c1.6-10-9.2-16.9-18.4-17.2c-12-0.4-24,8.9-25.4,21.6C3.8,35.9,5.1,42.6,8.4,46.7L8.4,46.7z"/>
	<linearGradient id="SVGID_3_" gradientUnits="userSpaceOnUse" x1="-8.0562" y1="21.7391" x2="68.7254" y2="21.7391">
		<stop  offset="0" style="stop-color:#2E318C"/>
		<stop  offset="0.5025" style="stop-color:#2492C3"/>
		<stop  offset="1" style="stop-color:#9CFFFF"/>
	</linearGradient>
	<path class="st4" d="M30.2,2.7C58.5,5.5,55.8,38.9,32,43.5c23.6,0.2,33.2-30.3,10.6-40.7C38.7,1,34.5,0,30,0
		c-7.2,0-13.8,2.5-18.9,6.7C18.1,4.7,24.7,3.6,30.2,2.7L30.2,2.7z"/>
	<linearGradient id="SVGID_4_" gradientUnits="userSpaceOnUse" x1="-13.3151" y1="43.2024" x2="56.9218" y2="43.2024">
		<stop  offset="0" style="stop-color:#662D80"/>
		<stop  offset="0.4926" style="stop-color:#C30080"/>
		<stop  offset="1" style="stop-color:#FF5783"/>
	</linearGradient>
	<path class="st5" d="M60,30.6c-1.9,13.9-16.4,23.3-29.9,21.9c-6-0.6-11.8-3.9-15.4-8.7c12,19.8,40.9,14,45-9.1
		C59.9,33.4,60,32,60,30.6L60,30.6z"/>
	<linearGradient id="SVGID_5_" gradientUnits="userSpaceOnUse" x1="6.1641" y1="28.2507" x2="72.9419" y2="28.2507">
		<stop  offset="0" style="stop-color:#FF87FF"/>
		<stop  offset="0.4926" style="stop-color:#9600B9"/>
		<stop  offset="1" style="stop-color:#5A00A3"/>
	</linearGradient>
	<path class="st6" d="M38.8,16.5c-4.4-0.6-9.7,0.3-11.2,4.8c-3.4-3.2-9-1.8-13.4-0.1c-7.3,3.2-10,13.1-6.8,19
		c-0.2-1.1-0.3-2.3-0.3-3.4c0-7.6,5.1-15.3,13.4-15.1c2.8,0.1,5.7,1.4,8.1,4.4C29.8,19.7,34.4,16.7,38.8,16.5L38.8,16.5z"/>
	<linearGradient id="SVGID_6_" gradientUnits="userSpaceOnUse" x1="-6.5238" y1="46.6871" x2="69.1756" y2="46.6871">
		<stop  offset="0" style="stop-color:#662D80"/>
		<stop  offset="0.4926" style="stop-color:#C30080"/>
		<stop  offset="1" style="stop-color:#FF5783"/>
	</linearGradient>
	<path class="st7" d="M14.6,43.8c-2.3-3-3.8-6.6-3.9-10.4C8.4,44.9,15.4,58.5,28.5,60c0.5,0,1,0,1.5,0c15,0,27.4-11,29.7-25.3
		C57,48.2,44.8,56.4,31.3,54.3C24.7,53.3,18.5,49.7,14.6,43.8L14.6,43.8z"/>
	<linearGradient id="SVGID_7_" gradientUnits="userSpaceOnUse" x1="-6.317" y1="36.0783" x2="62.9482" y2="36.0783">
		<stop  offset="0" style="stop-color:#FF87FF"/>
		<stop  offset="0.4926" style="stop-color:#9600B9"/>
		<stop  offset="1" style="stop-color:#5A00A3"/>
	</linearGradient>
	<path class="st8" d="M28.5,60c-10.5-0.9-19.2-9.9-21-19.8c-1.7-7.3,1.2-16,8.1-18.7c4.3-1.7,9.1-0.8,12.5,2.4
		c1.5-4.4,6.4-7.9,10.8-7.3c-2.9-2.9-6.8-4.2-10.9-4.3C17,12,8.1,19.7,5.9,30.3c-1,5-0.5,10.6,2.2,15.9C10.5,52.9,18.5,59.4,28.5,60
		L28.5,60z"/>
	<linearGradient id="SVGID_8_" gradientUnits="userSpaceOnUse" x1="-36.7532" y1="33.408" x2="41.5222" y2="33.408">
		<stop  offset="0" style="stop-color:#2E318C"/>
		<stop  offset="0.5025" style="stop-color:#2492C3"/>
		<stop  offset="1" style="stop-color:#9CFFFF"/>
	</linearGradient>
	<path class="st9" d="M29.9,9.5c9.3,0.3,19,6,18.4,16.5c-0.2,3.6-2.1,7.7-4.9,10.9c15.6-13.3,3.4-29.5-13.6-30
		C16.8,6.4,4.4,17.1,3,30.1C1.2,43.6,9.9,57,25.5,59.7c1,0.1,1.9,0.2,2.9,0.3c-15-1-25-15.8-23.5-29.8C6.4,17.5,17.9,9.1,29.9,9.5
		L29.9,9.5z"/>
	<linearGradient id="SVGID_9_" gradientUnits="userSpaceOnUse" x1="-24.9514" y1="30.6539" x2="60.0219" y2="30.6539">
		<stop  offset="0" style="stop-color:#2E318C"/>
		<stop  offset="0.5025" style="stop-color:#2492C3"/>
		<stop  offset="1" style="stop-color:#9CFFFF"/>
	</linearGradient>
	<path class="st10" d="M3.8,30C5.2,17,17,7.8,29.9,8.3C44,8.8,54.6,20.6,46.2,33.5c-0.8,1.2-1.7,2.4-2.8,3.4
		c-3.2,3.3-7.4,5.7-11.4,6.6c26.5-3.9,27.3-39.9-1.8-41.8c-6.7-0.5-13.6,1.3-19.1,5C4.3,12.2,0,20.6,0,30c0,15,11.1,27.5,25.5,29.7
		C11.6,57.2,2.3,43.6,3.8,30L3.8,30z"/>
</g>
</svg>
