<?xml version="1.0" encoding="utf-8"?>
<!-- Generator: Adobe Illustrator 24.0.1, SVG Export Plug-In . SVG Version: 6.00 Build 0)  -->
<svg version="1.1" id="Layer_1" xmlns="http://www.w3.org/2000/svg" xmlns:xlink="http://www.w3.org/1999/xlink" x="0px" y="0px"
	 width="64px" height="64px" viewBox="0 0 64 64" style="enable-background:new 0 0 64 64;" xml:space="preserve">
<style type="text/css">
	.st0{fill-rule:evenodd;clip-rule:evenodd;fill:url(#SVGID_1_);}
	.st1{fill-rule:evenodd;clip-rule:evenodd;fill:url(#SVGID_2_);}
	.st2{fill-rule:evenodd;clip-rule:evenodd;fill:url(#SVGID_3_);}
	.st3{fill-rule:evenodd;clip-rule:evenodd;fill:url(#SVGID_4_);}
	.st4{fill-rule:evenodd;clip-rule:evenodd;fill:url(#SVGID_5_);}
	.st5{fill-rule:evenodd;clip-rule:evenodd;fill:url(#SVGID_6_);}
	.st6{fill-rule:evenodd;clip-rule:evenodd;fill:url(#SVGID_7_);}
	.st7{fill-rule:evenodd;clip-rule:evenodd;fill:url(#SVGID_8_);}
	.st8{fill-rule:evenodd;clip-rule:evenodd;fill:url(#SVGID_9_);}
</style>
<g>
	
		<linearGradient id="SVGID_1_" gradientUnits="userSpaceOnUse" x1="7.219" y1="20.4815" x2="63.1856" y2="20.4815" gradientTransform="matrix(1 0 0 -1 0 64)">
		<stop  offset="0" style="stop-color:#662D80"/>
		<stop  offset="0.4926" style="stop-color:#C30080"/>
		<stop  offset="1" style="stop-color:#FF5783"/>
	</linearGradient>
	<path class="st0" d="M30.4,64c-13.5-3.5-19-15.3-18.9-28.4C11.1,28,16.2,23,21.9,23.1c-11.4-1-16.2,10.1-14.2,19.8
		C8.9,54.2,20.6,63.4,30.4,64L30.4,64z"/>
	
		<linearGradient id="SVGID_2_" gradientUnits="userSpaceOnUse" x1="-20.5193" y1="34.409" x2="51.3294" y2="34.409" gradientTransform="matrix(1 0 0 -1 0 64)">
		<stop  offset="0" style="stop-color:#FF87FF"/>
		<stop  offset="0.4926" style="stop-color:#9600B9"/>
		<stop  offset="1" style="stop-color:#5A00A3"/>
	</linearGradient>
	<path class="st1" d="M9,49.8c-2.3-6.6-2.9-12-1.8-17.3c2.3-11.2,10.7-18.2,22.3-18c2.1,0.5,5.8,0.6,11.9,3.1
		c5.3-0.2,10.4,3.4,10,10.2c1.8-10.7-9.8-18-19.7-18.4c-12.7-0.5-25.5,9.5-27,23C4.1,38.3,5.4,45.5,9,49.8L9,49.8z"/>
	
		<linearGradient id="SVGID_3_" gradientUnits="userSpaceOnUse" x1="-8.5933" y1="40.7995" x2="73.3071" y2="40.7995" gradientTransform="matrix(1 0 0 -1 0 64)">
		<stop  offset="0" style="stop-color:#2E318C"/>
		<stop  offset="0.5025" style="stop-color:#2492C3"/>
		<stop  offset="1" style="stop-color:#9CFFFF"/>
	</linearGradient>
	<path class="st2" d="M32.2,2.9c30.1,2.9,27.3,38.6,1.9,43.5C59.2,46.6,69.5,14,45.4,2.9C41.3,1,36.8,0,32,0
		c-7.7,0-14.7,2.7-20.2,7.2C19.4,5,26.4,3.8,32.2,2.9L32.2,2.9z"/>
	
		<linearGradient id="SVGID_4_" gradientUnits="userSpaceOnUse" x1="-14.2028" y1="17.8998" x2="60.7166" y2="17.8998" gradientTransform="matrix(1 0 0 -1 0 64)">
		<stop  offset="0" style="stop-color:#662D80"/>
		<stop  offset="0.4926" style="stop-color:#C30080"/>
		<stop  offset="1" style="stop-color:#FF5783"/>
	</linearGradient>
	<path class="st3" d="M64,32.6C62,47.5,46.5,57.5,32.1,56c-6.4-0.7-12.6-4.1-16.5-9.2c12.8,21.1,43.7,14.9,48-9.7
		C63.8,35.6,64,34.1,64,32.6L64,32.6z"/>
	
		<linearGradient id="SVGID_5_" gradientUnits="userSpaceOnUse" x1="6.5781" y1="33.8822" x2="77.8078" y2="33.8822" gradientTransform="matrix(1 0 0 -1 0 64)">
		<stop  offset="0" style="stop-color:#FF87FF"/>
		<stop  offset="0.4926" style="stop-color:#9600B9"/>
		<stop  offset="1" style="stop-color:#5A00A3"/>
	</linearGradient>
	<path class="st4" d="M41.4,17.6c-4.7-0.6-10.3,0.3-11.9,5.1c-3.6-3.4-9.6-2-14.2-0.1C7.4,25.9,4.6,36.6,8,42.8
		c-0.2-1.2-0.3-2.4-0.3-3.6c0-8.1,5.5-16.3,14.2-16.1c3,0.1,6.1,1.5,8.6,4.7C31.8,21,36.7,17.8,41.4,17.6L41.4,17.6z"/>
	
		<linearGradient id="SVGID_6_" gradientUnits="userSpaceOnUse" x1="-6.9587" y1="14.2" x2="73.7873" y2="14.2" gradientTransform="matrix(1 0 0 -1 0 64)">
		<stop  offset="0" style="stop-color:#662D80"/>
		<stop  offset="0.4926" style="stop-color:#C30080"/>
		<stop  offset="1" style="stop-color:#FF5783"/>
	</linearGradient>
	<path class="st5" d="M15.6,46.7c-2.5-3.2-4-7-4.2-11.1c-2.5,12.3,5,26.8,18.9,28.4c0.5,0,1.1,0,1.6,0c16,0,29.2-11.7,31.6-27
		c-2.8,14.4-15.9,23.1-30.2,20.9C26.3,56.8,19.7,53,15.6,46.7L15.6,46.7z"/>
	
		<linearGradient id="SVGID_7_" gradientUnits="userSpaceOnUse" x1="-6.7381" y1="25.5505" x2="67.1447" y2="25.5505" gradientTransform="matrix(1 0 0 -1 0 64)">
		<stop  offset="0" style="stop-color:#FF87FF"/>
		<stop  offset="0.4926" style="stop-color:#9600B9"/>
		<stop  offset="1" style="stop-color:#5A00A3"/>
	</linearGradient>
	<path class="st6" d="M30.4,64C19.1,63,9.9,53.4,8,42.8c-1.9-7.8,1.3-17.1,8.6-20c4.6-1.8,9.7-0.9,13.3,2.5
		c1.6-4.7,6.8-8.4,11.5-7.8c-3.1-3.1-7.3-4.5-11.6-4.6C18.2,12.8,8.7,21,6.3,32.3c-1.1,5.3-0.5,11.3,2.3,17
		C11.2,56.4,19.8,63.3,30.4,64L30.4,64z"/>
	
		<linearGradient id="SVGID_8_" gradientUnits="userSpaceOnUse" x1="-39.2034" y1="28.3579" x2="44.2903" y2="28.3579" gradientTransform="matrix(1 0 0 -1 0 64)">
		<stop  offset="0" style="stop-color:#2E318C"/>
		<stop  offset="0.5025" style="stop-color:#2492C3"/>
		<stop  offset="1" style="stop-color:#9CFFFF"/>
	</linearGradient>
	<path class="st7" d="M31.9,10.1c9.9,0.4,20.3,6.5,19.6,17.6c-0.2,3.8-2.2,8.2-5.2,11.6c16.6-14.2,3.6-31.5-14.6-32
		C18,6.8,4.7,18.2,3.2,32.2c-1.8,14.4,7.4,28.6,24.1,31.5c1,0.2,2.1,0.3,3.1,0.3c-16-1.1-26.7-16.9-25-31.8
		C6.8,18.7,19.1,9.7,31.9,10.1L31.9,10.1z"/>
	
		<linearGradient id="SVGID_9_" gradientUnits="userSpaceOnUse" x1="-26.6148" y1="31.3392" x2="64.0234" y2="31.3392" gradientTransform="matrix(1 0 0 -1 0 64)">
		<stop  offset="0" style="stop-color:#2E318C"/>
		<stop  offset="0.5025" style="stop-color:#2492C3"/>
		<stop  offset="1" style="stop-color:#9CFFFF"/>
	</linearGradient>
	<path class="st8" d="M4,32C5.6,18.1,18.2,8.3,31.9,8.8C47,9.4,58.3,22,49.3,35.7c-0.9,1.3-1.9,2.5-3,3.7c-3.4,3.5-7.9,6-12.2,7
		c28.3-4.1,29.1-42.5-1.9-44.6c-7.1-0.5-14.6,1.4-20.4,5.4C4.6,13,0,22,0,32c0,16,11.8,29.3,27.2,31.6C12.4,61.1,2.4,46.5,4,32L4,32
		z"/>
</g>
</svg>
